<?xml version="1.0" encoding="utf-8"?>
<!-- Generator: Adobe Illustrator 19.2.0, SVG Export Plug-In . SVG Version: 6.00 Build 0)  -->
<svg version="1.1" id="Layer_1" xmlns="http://www.w3.org/2000/svg" xmlns:xlink="http://www.w3.org/1999/xlink" x="0px" y="0px"
	 viewBox="0 0 360 360" style="enable-background:new 0 0 360 360;" xml:space="preserve">
<style type="text/css">
	.st0{fill:url(#SVGID_1_);}
	.st1{fill:url(#SVGID_2_);}
	.st2{fill:url(#SVGID_3_);}
	.st3{clip-path:url(#SVGID_6_);fill:url(#SVGID_7_);}
</style>
<linearGradient id="SVGID_1_" gradientUnits="userSpaceOnUse" x1="4.2" y1="-558.7" x2="355.8" y2="-558.7" gradientTransform="matrix(1 0 0 1 0 744)">
	<stop  offset="0" style="stop-color:#FCFCFC"/>
	<stop  offset="1" style="stop-color:#E6E6E6"/>
</linearGradient>
<polygon class="st0" points="92,337.5 4.2,185.3 92,33.1 267.9,33.1 355.8,185.3 267.9,337.5 "/>
<linearGradient id="SVGID_2_" gradientUnits="userSpaceOnUse" x1="9.2" y1="-558.7" x2="350.6" y2="-558.7" gradientTransform="matrix(1 0 0 1 0 744)">
	<stop  offset="0" style="stop-color:#FCFCFC"/>
	<stop  offset="1" style="stop-color:#E6E6E6"/>
</linearGradient>
<polygon class="st1" points="94.6,333.1 9.2,185.3 94.6,37.5 265.3,37.5 350.6,185.3 265.3,333.1 "/>
<linearGradient id="SVGID_3_" gradientUnits="userSpaceOnUse" x1="10.2425" y1="-558.7" x2="351.6425" y2="-558.7" gradientTransform="matrix(1 0 0 1 0 744)">
	<stop  offset="0" style="stop-color:#E6E6E6"/>
	<stop  offset="1" style="stop-color:#FCFCFC"/>
</linearGradient>
<polygon class="st2" points="95.6,333.1 10.2,185.3 95.6,37.5 266.3,37.5 351.6,185.3 266.3,333.1 "/>
<g>
	<defs>
		<path id="SVGID_4_" d="M152.6,124.2c8,3,15.7,8.6,22.7,20.4c0.9,1.6,1.8,3.2,2.5,4.9l2.1-38.5l2.1,38.5c0.8-1.7,1.6-3.3,2.5-4.9
			c7-11.9,14.7-17.4,22.7-20.4c-1.5-8.2-4.7-15.8-9.3-22.4c-4.7-6.9-10.9-12.8-18.1-17.2c-7.2,4.4-13.3,10.2-18.1,17.2
			C157.3,108.5,154.1,116,152.6,124.2 M224.4,251.4c-12.6-2-25.2-4-35.8-21.9c-3.6-6.1-5.7-12.9-6.2-19.8
			c-0.4-5.4,0.1-10.8,1.6-16.1c6,9.3,25.9,36.6,44.9,41.7c-17.3-9.9-34-33-41.1-44.5c5.9,0.2,11.6,0.9,17,2.1
			c15,3.2,27.7,9.9,36.6,19.8c8.8,9.8,13.9,22.7,13.9,38.4c0,4.1-0.3,8.4-1.1,12.9C245,254.7,234.7,253.1,224.4,251.4z M135.4,251.4
			c12.6-2,25.2-4,35.8-21.9c3.6-6.1,5.7-12.9,6.2-19.8c0.4-5.4-0.1-10.8-1.6-16.1c-6,9.3-25.9,36.6-44.9,41.7
			c17.3-9.9,34-33,41.1-44.5c-5.9,0.2-11.6,0.9-17,2.1c-15,3.2-27.7,9.9-36.6,19.8c-8.8,9.8-13.9,22.7-13.9,38.4
			c0,4.1,0.3,8.4,1.1,12.9C114.8,254.7,125.1,253.1,135.4,251.4z M135.4,125.2c12.6,2,25.2,4,35.8,21.9c3.6,6.1,5.7,12.9,6.2,19.8
			c0.4,5.4-0.1,10.8-1.6,16.1c-6-9.3-25.9-36.6-44.9-41.7c17.3,9.9,34,33,41.1,44.5c-5.9-0.2-11.6-0.9-17-2.1
			c-15-3.2-27.7-9.9-36.6-19.8c-8.8-9.8-13.9-22.7-13.9-38.4c0-4.1,0.3-8.4,1.1-12.9C114.8,121.9,125.1,123.5,135.4,125.2z
			 M224.4,125.2c-12.6,2-25.2,4-35.8,21.9c-3.6,6.1-5.7,12.9-6.2,19.8c-0.4,5.4,0.1,10.8,1.6,16.1c6-9.3,25.9-36.6,44.9-41.7
			c-17.3,9.9-34,33-41.1,44.5c5.9-0.2,11.6-0.9,17-2.1c15-3.2,27.7-9.9,36.6-19.8c8.8-9.8,13.9-22.7,13.9-38.4
			c0-4.1-0.3-8.4-1.1-12.9C245,121.9,234.7,123.5,224.4,125.2z M245,167.2c-7.7,8.6-18,14.9-30.1,18.8l42.4,2.3l-42.4,2.3
			c12.1,3.9,22.4,10.3,30.1,18.8c1.4,1.6,2.8,3.3,4.1,5c7.2-2,13.8-5.3,19.6-9.7c5.9-4.5,11-10.1,14.9-16.5c-3.9-6.4-9-12-14.9-16.5
			c-5.8-4.4-12.4-7.7-19.6-9.7C247.8,163.9,246.4,165.6,245,167.2z M179.9,221.6 M207.2,252.4c-8-3-15.7-8.6-22.7-20.4
			c-0.9-1.6-1.8-3.2-2.5-4.9l-2.1,38.5l-2.1-38.5c-0.8,1.7-1.6,3.3-2.5,4.9c-7,11.9-14.7,17.4-22.7,20.4c1.5,8.2,4.7,15.8,9.3,22.4
			c4.7,6.9,10.9,12.8,18.1,17.2c7.2-4.4,13.3-10.2,18.1-17.2C202.5,268.1,205.7,260.5,207.2,252.4z M91.2,171.8
			c-5.9,4.5-11,10.1-14.9,16.5c3.9,6.4,9,12,14.9,16.5c5.8,4.4,12.4,7.7,19.6,9.7c1.3-1.8,2.6-3.4,4.1-5c7.7-8.6,18-14.9,30.1-18.8
			l-42.4-2.3L145,186c-12.1-3.9-22.4-10.3-30.1-18.8c-1.4-1.6-2.8-3.3-4.1-5C103.6,164.1,97,167.5,91.2,171.8z"/>
	</defs>
	<linearGradient id="SVGID_5_" gradientUnits="userSpaceOnUse" x1="76.2643" y1="188.2938" x2="283.5357" y2="188.2938">
		<stop  offset="0" style="stop-color:#BB8E6D"/>
		<stop  offset="1" style="stop-color:#D9B899"/>
	</linearGradient>
	<use xlink:href="#SVGID_4_"  style="overflow:visible;fill:url(#SVGID_5_);"/>
	<clipPath id="SVGID_6_">
		<use xlink:href="#SVGID_4_"  style="overflow:visible;"/>
	</clipPath>
	<linearGradient id="SVGID_7_" gradientUnits="userSpaceOnUse" x1="181.9072" y1="291.871" x2="177.9003" y2="85.107">
		<stop  offset="0" style="stop-color:#BB8E6D"/>
		<stop  offset="1" style="stop-color:#D9B899"/>
	</linearGradient>
	<rect x="76.3" y="84.7" class="st3" width="207.3" height="207.3"/>
</g>
</svg>
