<?xml version="1.0" encoding="utf-8"?>
<!-- Generator: Adobe Illustrator 19.2.0, SVG Export Plug-In . SVG Version: 6.00 Build 0)  -->
<svg version="1.1" id="Layer_1" xmlns="http://www.w3.org/2000/svg" xmlns:xlink="http://www.w3.org/1999/xlink" x="0px" y="0px"
	 viewBox="0 0 1024 768" style="enable-background:new 0 0 1024 768;" xml:space="preserve">
<style type="text/css">
	.st0{clip-path:url(#SVGID_2_);}
	.st1{fill:none;}
	.st2{fill:url(#SVGID_3_);}
	.st3{opacity:0.65;}
	.st4{fill:url(#SVGID_4_);}
	.st5{fill:url(#SVGID_5_);}
	.st6{fill:url(#SVGID_6_);}
	.st7{fill:url(#SVGID_7_);}
	.st8{fill:url(#SVGID_8_);}
	.st9{fill:url(#SVGID_9_);}
	.st10{fill:url(#SVGID_10_);}
	.st11{fill:url(#SVGID_11_);}
	.st12{fill:url(#SVGID_12_);}
	.st13{fill:url(#SVGID_13_);}
	.st14{fill:url(#SVGID_14_);}
	.st15{fill:url(#SVGID_15_);}
	.st16{fill:url(#SVGID_16_);}
	.st17{fill:url(#SVGID_17_);}
	.st18{fill:url(#SVGID_18_);}
	.st19{fill:url(#SVGID_19_);}
	.st20{fill:url(#SVGID_20_);}
	.st21{fill:url(#SVGID_21_);}
	.st22{fill:url(#SVGID_22_);}
	.st23{fill:url(#SVGID_23_);}
	.st24{fill:url(#SVGID_24_);}
	.st25{fill:url(#SVGID_25_);}
	.st26{fill:url(#SVGID_26_);}
	.st27{fill:url(#SVGID_27_);}
	.st28{fill:url(#SVGID_28_);}
	.st29{fill:url(#SVGID_29_);}
	.st30{fill:url(#SVGID_30_);}
	.st31{fill:url(#SVGID_31_);}
	.st32{fill:url(#SVGID_32_);}
	.st33{fill:url(#SVGID_33_);}
	.st34{fill:url(#SVGID_34_);}
	.st35{fill:url(#SVGID_35_);}
	.st36{fill:url(#SVGID_36_);}
	.st37{fill:url(#SVGID_37_);}
	.st38{fill:url(#SVGID_38_);}
	.st39{fill:url(#SVGID_39_);}
	.st40{fill:url(#SVGID_40_);}
	.st41{fill:url(#SVGID_41_);}
	.st42{fill:url(#SVGID_42_);}
	.st43{fill:url(#SVGID_43_);}
	.st44{fill:url(#SVGID_44_);}
	.st45{fill:url(#SVGID_45_);}
	.st46{fill:url(#SVGID_46_);}
	.st47{fill:url(#SVGID_47_);}
	.st48{fill:url(#SVGID_48_);}
	.st49{fill:url(#SVGID_49_);}
	.st50{fill:url(#SVGID_50_);}
	.st51{fill:url(#SVGID_51_);}
	.st52{fill:url(#SVGID_52_);}
	.st53{fill:url(#SVGID_53_);}
	.st54{fill:url(#SVGID_54_);}
	.st55{fill:url(#SVGID_55_);}
	.st56{fill:url(#SVGID_56_);}
	.st57{fill:url(#SVGID_57_);}
	.st58{fill:url(#SVGID_58_);}
	.st59{fill:url(#SVGID_59_);}
	.st60{fill:url(#SVGID_60_);}
	.st61{fill:url(#SVGID_61_);}
	.st62{fill:url(#SVGID_62_);}
	.st63{fill:url(#SVGID_63_);}
	.st64{fill:url(#SVGID_64_);}
	.st65{fill:url(#SVGID_65_);}
	.st66{fill:url(#SVGID_66_);}
	.st67{fill:url(#SVGID_67_);}
	.st68{fill:url(#SVGID_68_);}
	.st69{fill:url(#SVGID_69_);}
	.st70{fill:url(#SVGID_70_);}
	.st71{fill:url(#SVGID_71_);}
	.st72{fill:url(#SVGID_72_);}
	.st73{fill:url(#SVGID_73_);}
	.st74{fill:url(#SVGID_74_);}
	.st75{fill:url(#SVGID_75_);}
</style>
<g>
	<g>
		<defs>
			<rect id="SVGID_1_" x="-0.7" y="-4" width="1024.7" height="771.2"/>
		</defs>
		<clipPath id="SVGID_2_">
			<use xlink:href="#SVGID_1_"  style="overflow:visible;"/>
		</clipPath>
		<g class="st0">
			<rect x="-1.5" y="-4" class="st1" width="1025.5" height="772.9"/>
			
				<linearGradient id="SVGID_3_" gradientUnits="userSpaceOnUse" x1="-0.6732" y1="-2422.384" x2="1024" y2="-2422.384" gradientTransform="matrix(1 0 0 1 0 2804)">
				<stop  offset="0" style="stop-color:#E6E6E6"/>
				<stop  offset="1" style="stop-color:#FCFCFC"/>
			</linearGradient>
			<rect x="-0.7" y="-4" class="st2" width="1024.7" height="771.2"/>
			<g class="st3">
				
					<image style="overflow:visible;enable-background:new    ;" width="1601" height="2901" xlink:href="949572BF32976570.png"  transform="matrix(0.6384 0 0 0.2665 0.1976 -4.0919)">
				</image>
			</g>
		</g>
	</g>
	<g>
		<g>
			
				<linearGradient id="SVGID_4_" gradientUnits="userSpaceOnUse" x1="940.4808" y1="427.8645" x2="971.1995" y2="427.8645" gradientTransform="matrix(-1 0 0 1 1731.8202 2)">
				<stop  offset="0" style="stop-color:#E6E6E6"/>
				<stop  offset="1" style="stop-color:#FCFCFC"/>
			</linearGradient>
			<polygon class="st4" points="768.4,443.2 760.6,429.8 768.4,416.6 783.7,416.6 791.3,429.8 783.7,443.2 			"/>
			
				<linearGradient id="SVGID_5_" gradientUnits="userSpaceOnUse" x1="940.4808" y1="427.8645" x2="971.1995" y2="427.8645" gradientTransform="matrix(-1 0 0 1 1731.8202 2)">
				<stop  offset="0" style="stop-color:#E6E6E6"/>
				<stop  offset="1" style="stop-color:#FCFCFC"/>
			</linearGradient>
			<polygon class="st5" points="768.4,443.2 760.6,429.8 768.4,416.6 783.7,416.6 791.3,429.8 783.7,443.2 			"/>
			
				<linearGradient id="SVGID_6_" gradientUnits="userSpaceOnUse" x1="941.1931" y1="427.8645" x2="970.4872" y2="427.8645" gradientTransform="matrix(-1 0 0 1 1731.8202 2)">
				<stop  offset="0" style="stop-color:#FCFCFC"/>
				<stop  offset="1" style="stop-color:#E6E6E6"/>
			</linearGradient>
			<polygon class="st6" points="768.6,442.6 761.3,429.8 768.6,417.2 783.3,417.2 790.6,429.8 783.3,442.6 			"/>
		</g>
		<g>
			
				<linearGradient id="SVGID_7_" gradientUnits="userSpaceOnUse" x1="947.9601" y1="312.291" x2="1014.0276" y2="312.291" gradientTransform="matrix(-1 0 0 1 1731.8202 2)">
				<stop  offset="0" style="stop-color:#E6E6E6"/>
				<stop  offset="1" style="stop-color:#FCFCFC"/>
			</linearGradient>
			<polygon class="st7" points="734.3,342.9 717.8,314.3 734.3,285.7 767.3,285.7 783.9,314.3 767.3,342.9 			"/>
			
				<linearGradient id="SVGID_8_" gradientUnits="userSpaceOnUse" x1="947.9601" y1="312.291" x2="1014.0276" y2="312.291" gradientTransform="matrix(-1 0 0 1 1731.8202 2)">
				<stop  offset="0" style="stop-color:#E6E6E6"/>
				<stop  offset="1" style="stop-color:#FCFCFC"/>
			</linearGradient>
			<polygon class="st8" points="734.3,342.9 717.8,314.3 734.3,285.7 767.3,285.7 783.9,314.3 767.3,342.9 			"/>
			
				<linearGradient id="SVGID_9_" gradientUnits="userSpaceOnUse" x1="949.4738" y1="312.2465" x2="1012.5139" y2="312.2465" gradientTransform="matrix(-1 0 0 1 1731.8202 2)">
				<stop  offset="0" style="stop-color:#FCFCFC"/>
				<stop  offset="1" style="stop-color:#E6E6E6"/>
			</linearGradient>
			<polygon class="st9" points="735,341.6 719.3,314.3 735,286.9 766.6,286.9 782.3,314.3 766.6,341.6 			"/>
		</g>
		<g>
			
				<linearGradient id="SVGID_10_" gradientUnits="userSpaceOnUse" x1="-6655.8306" y1="13374.9951" x2="-6414.499" y2="13374.9951" gradientTransform="matrix(0.1695 0 0 -0.1695 1894.384 2634.5981)">
				<stop  offset="0" style="stop-color:#F1F1F1"/>
				<stop  offset="1" style="stop-color:#DBDBDB"/>
			</linearGradient>
			<polygon class="st10" points="796.8,349.9 807,367.6 796.8,385.2 776.3,385.2 766.1,367.6 776.3,349.9 			"/>
			
				<linearGradient id="SVGID_11_" gradientUnits="userSpaceOnUse" x1="-6652.2969" y1="13375.2578" x2="-6417.8228" y2="13375.2578" gradientTransform="matrix(0.1695 0 0 -0.1695 1894.384 2634.5981)">
				<stop  offset="0" style="stop-color:#F1F1F1"/>
				<stop  offset="1" style="stop-color:#DBDBDB"/>
			</linearGradient>
			<polygon class="st11" points="796.4,350.3 806.4,367.6 796.4,384.7 776.6,384.7 766.6,367.6 776.6,350.3 			"/>
			
				<linearGradient id="SVGID_12_" gradientUnits="userSpaceOnUse" x1="-6652.2969" y1="13375.2578" x2="-6417.8228" y2="13375.2578" gradientTransform="matrix(0.1695 0 0 -0.1695 1894.384 2634.5981)">
				<stop  offset="0" style="stop-color:#DBDBDB"/>
				<stop  offset="1" style="stop-color:#F1F1F1"/>
			</linearGradient>
			<polygon class="st12" points="796.4,350.3 806.4,367.6 796.4,384.7 776.6,384.7 766.6,367.6 776.6,350.3 			"/>
		</g>
		<g>
			<g>
				
					<linearGradient id="SVGID_13_" gradientUnits="userSpaceOnUse" x1="824.4622" y1="264.3877" x2="958.912" y2="264.3877" gradientTransform="matrix(-1 0 0 1 1731.8202 2)">
					<stop  offset="0" style="stop-color:#E6E6E6"/>
					<stop  offset="1" style="stop-color:#FCFCFC"/>
				</linearGradient>
				<polygon class="st13" points="806.6,324.6 772.9,266.3 806.6,208.2 873.8,208.2 907.4,266.3 873.8,324.6 				"/>
				
					<linearGradient id="SVGID_14_" gradientUnits="userSpaceOnUse" x1="824.4622" y1="264.3877" x2="958.912" y2="264.3877" gradientTransform="matrix(-1 0 0 1 1731.8202 2)">
					<stop  offset="0" style="stop-color:#E6E6E6"/>
					<stop  offset="1" style="stop-color:#FCFCFC"/>
				</linearGradient>
				<polygon class="st14" points="806.6,324.6 772.9,266.3 806.6,208.2 873.8,208.2 907.4,266.3 873.8,324.6 				"/>
				
					<linearGradient id="SVGID_15_" gradientUnits="userSpaceOnUse" x1="827.4895" y1="264.3877" x2="955.7957" y2="264.3877" gradientTransform="matrix(-1 0 0 1 1731.8202 2)">
					<stop  offset="0" style="stop-color:#FCFCFC"/>
					<stop  offset="1" style="stop-color:#E6E6E6"/>
				</linearGradient>
				<polygon class="st15" points="808.1,322 776,266.3 808.1,210.8 872.3,210.8 904.3,266.3 872.3,322 				"/>
			</g>
			<g>
				
					<linearGradient id="SVGID_16_" gradientUnits="userSpaceOnUse" x1="-5867.2886" y1="12695.2471" x2="-5329.8989" y2="12695.2471" gradientTransform="matrix(0.1695 0 0 -0.1695 1894.384 2634.5981)">
					<stop  offset="0" style="stop-color:#FCFCFC"/>
					<stop  offset="1" style="stop-color:#E6E6E6"/>
				</linearGradient>
				<polygon class="st16" points="968.3,443.3 991,482.8 968.3,522.2 922.7,522.2 899.9,482.8 922.7,443.3 				"/>
				
					<linearGradient id="SVGID_17_" gradientUnits="userSpaceOnUse" x1="-5859.4087" y1="12694.9844" x2="-5337.2529" y2="12694.9844" gradientTransform="matrix(0.1695 0 0 -0.1695 1894.384 2634.5981)">
					<stop  offset="0" style="stop-color:#FCFCFC"/>
					<stop  offset="1" style="stop-color:#E6E6E6"/>
				</linearGradient>
				<polygon class="st17" points="967.5,444.5 989.7,482.8 967.5,521.1 923.3,521.1 901.2,482.8 923.3,444.5 				"/>
				
					<linearGradient id="SVGID_18_" gradientUnits="userSpaceOnUse" x1="-5859.4087" y1="12694.9844" x2="-5337.2529" y2="12694.9844" gradientTransform="matrix(0.1695 0 0 -0.1695 1894.384 2634.5981)">
					<stop  offset="0" style="stop-color:#E6E6E6"/>
					<stop  offset="1" style="stop-color:#FCFCFC"/>
				</linearGradient>
				<polygon class="st18" points="967.6,444.5 989.7,482.8 967.6,521.1 923.4,521.1 901.2,482.8 923.4,444.5 				"/>
			</g>
			<g>
				
					<linearGradient id="SVGID_19_" gradientUnits="userSpaceOnUse" x1="736.669" y1="188.8375" x2="833.099" y2="188.8375" gradientTransform="matrix(-1 0 0 1 1731.8202 2)">
					<stop  offset="0" style="stop-color:#E6E6E6"/>
					<stop  offset="1" style="stop-color:#FCFCFC"/>
				</linearGradient>
				<polygon class="st19" points="922.9,232.5 898.7,190.8 922.9,149.2 971,149.2 995.2,190.8 971,232.5 				"/>
				
					<linearGradient id="SVGID_20_" gradientUnits="userSpaceOnUse" x1="736.669" y1="188.8375" x2="833.099" y2="188.8375" gradientTransform="matrix(-1 0 0 1 1731.8202 2)">
					<stop  offset="0" style="stop-color:#E6E6E6"/>
					<stop  offset="1" style="stop-color:#FCFCFC"/>
				</linearGradient>
				<polygon class="st20" points="922.9,232.5 898.7,190.8 922.9,149.2 971,149.2 995.2,190.8 971,232.5 				"/>
				
					<linearGradient id="SVGID_21_" gradientUnits="userSpaceOnUse" x1="738.895" y1="188.793" x2="830.873" y2="188.793" gradientTransform="matrix(-1 0 0 1 1731.8202 2)">
					<stop  offset="0" style="stop-color:#FCFCFC"/>
					<stop  offset="1" style="stop-color:#E6E6E6"/>
				</linearGradient>
				<polygon class="st21" points="924,230.6 900.9,190.8 924,150.9 970,150.9 992.9,190.8 970,230.6 				"/>
			</g>
			<g>
				
					<linearGradient id="SVGID_22_" gradientUnits="userSpaceOnUse" x1="-5931.376" y1="13406.7764" x2="-5135.0093" y2="13406.7764" gradientTransform="matrix(0.1695 0 0 -0.1695 1894.384 2634.5981)">
					<stop  offset="0" style="stop-color:#FCFCFC"/>
					<stop  offset="1" style="stop-color:#E6E6E6"/>
				</linearGradient>
				<polygon class="st22" points="990.3,303.7 1024,362.1 990.3,420.6 922.8,420.6 889,362.1 922.8,303.7 				"/>
				
					<linearGradient id="SVGID_23_" gradientUnits="userSpaceOnUse" x1="-5920.3447" y1="13406.5137" x2="-5146.5664" y2="13406.5137" gradientTransform="matrix(0.1695 0 0 -0.1695 1894.384 2634.5981)">
					<stop  offset="0" style="stop-color:#FCFCFC"/>
					<stop  offset="1" style="stop-color:#E6E6E6"/>
				</linearGradient>
				<polygon class="st23" points="989.2,305.4 1022,362.1 989.2,419 923.7,419 890.9,362.1 923.7,305.4 				"/>
				
					<linearGradient id="SVGID_24_" gradientUnits="userSpaceOnUse" x1="-5920.3447" y1="13406.5137" x2="-5146.5664" y2="13406.5137" gradientTransform="matrix(0.1695 0 0 -0.1695 1894.384 2634.5981)">
					<stop  offset="0" style="stop-color:#E6E6E6"/>
					<stop  offset="1" style="stop-color:#FCFCFC"/>
				</linearGradient>
				<polygon class="st24" points="989.4,305.4 1022,362.1 989.4,419 923.7,419 890.9,362.1 923.7,305.4 				"/>
			</g>
			<g>
				
					<linearGradient id="SVGID_25_" gradientUnits="userSpaceOnUse" x1="831.9415" y1="427.8645" x2="928.2824" y2="427.8645" gradientTransform="matrix(-1 0 0 1 1731.8202 2)">
					<stop  offset="0" style="stop-color:#E6E6E6"/>
					<stop  offset="1" style="stop-color:#FCFCFC"/>
				</linearGradient>
				<polygon class="st25" points="827.6,471.6 803.5,429.8 827.6,388.1 875.8,388.1 899.9,429.8 875.8,471.6 				"/>
				
					<linearGradient id="SVGID_26_" gradientUnits="userSpaceOnUse" x1="831.9415" y1="427.8645" x2="928.2824" y2="427.8645" gradientTransform="matrix(-1 0 0 1 1731.8202 2)">
					<stop  offset="0" style="stop-color:#E6E6E6"/>
					<stop  offset="1" style="stop-color:#FCFCFC"/>
				</linearGradient>
				<polygon class="st26" points="827.6,471.6 803.5,429.8 827.6,388.1 875.8,388.1 899.9,429.8 875.8,471.6 				"/>
				
					<linearGradient id="SVGID_27_" gradientUnits="userSpaceOnUse" x1="834.1675" y1="427.8645" x2="926.0564" y2="427.8645" gradientTransform="matrix(-1 0 0 1 1731.8202 2)">
					<stop  offset="0" style="stop-color:#FCFCFC"/>
					<stop  offset="1" style="stop-color:#E6E6E6"/>
				</linearGradient>
				<polygon class="st27" points="828.7,469.7 805.8,429.8 828.7,390 874.7,390 897.7,429.8 874.7,469.7 				"/>
			</g>
			<g>
				
					<linearGradient id="SVGID_28_" gradientUnits="userSpaceOnUse" x1="-6215.7734" y1="12383.7393" x2="-5825.8916" y2="12383.7393" gradientTransform="matrix(0.1695 0 0 -0.1695 1894.384 2634.5981)">
					<stop  offset="0" style="stop-color:#F1F1F1"/>
					<stop  offset="1" style="stop-color:#DBDBDB"/>
				</linearGradient>
				<polygon class="st28" points="890.3,506.9 906.6,535.5 890.3,564.2 857.1,564.2 840.7,535.5 857.1,506.9 				"/>
				
					<linearGradient id="SVGID_29_" gradientUnits="userSpaceOnUse" x1="-6210.0635" y1="12384.002" x2="-5831.3882" y2="12384.002" gradientTransform="matrix(0.1695 0 0 -0.1695 1894.384 2634.5981)">
					<stop  offset="0" style="stop-color:#F1F1F1"/>
					<stop  offset="1" style="stop-color:#DBDBDB"/>
				</linearGradient>
				<polygon class="st29" points="889.6,507.7 905.8,535.4 889.6,563.3 857.7,563.3 841.6,535.4 857.7,507.7 				"/>
				
					<linearGradient id="SVGID_30_" gradientUnits="userSpaceOnUse" x1="-6210.0635" y1="12384.002" x2="-5831.3882" y2="12384.002" gradientTransform="matrix(0.1695 0 0 -0.1695 1894.384 2634.5981)">
					<stop  offset="0" style="stop-color:#DBDBDB"/>
					<stop  offset="1" style="stop-color:#F1F1F1"/>
				</linearGradient>
				<polygon class="st30" points="889.6,507.7 905.8,535.4 889.6,563.3 857.7,563.3 841.6,535.4 857.7,507.7 				"/>
			</g>
			<g>
				
					<linearGradient id="SVGID_31_" gradientUnits="userSpaceOnUse" x1="-5841.8809" y1="12110.8418" x2="-5399.0464" y2="12110.8418" gradientTransform="matrix(0.1695 0 0 -0.1695 1894.384 2634.5981)">
					<stop  offset="0" style="stop-color:#F1F1F1"/>
					<stop  offset="1" style="stop-color:#DBDBDB"/>
				</linearGradient>
				<polygon class="st31" points="960.2,549.4 979,581.8 960.2,614.2 922.8,614.2 904,581.8 922.8,549.4 				"/>
				
					<linearGradient id="SVGID_32_" gradientUnits="userSpaceOnUse" x1="-5835.4053" y1="12111.1045" x2="-5406.3022" y2="12111.1045" gradientTransform="matrix(0.1695 0 0 -0.1695 1894.384 2634.5981)">
					<stop  offset="0" style="stop-color:#F1F1F1"/>
					<stop  offset="1" style="stop-color:#DBDBDB"/>
				</linearGradient>
				<polygon class="st32" points="959.7,550.2 977.8,581.8 959.7,613.3 923.3,613.3 905.1,581.8 923.3,550.2 				"/>
				
					<linearGradient id="SVGID_33_" gradientUnits="userSpaceOnUse" x1="-5835.4053" y1="12111.1045" x2="-5406.3022" y2="12111.1045" gradientTransform="matrix(0.1695 0 0 -0.1695 1894.384 2634.5981)">
					<stop  offset="0" style="stop-color:#DBDBDB"/>
					<stop  offset="1" style="stop-color:#F1F1F1"/>
				</linearGradient>
				<polygon class="st33" points="959.7,550.2 977.8,581.8 959.7,613.3 923.3,613.3 905.1,581.8 923.3,550.2 				"/>
			</g>
			<g>
				
					<linearGradient id="SVGID_34_" gradientUnits="userSpaceOnUse" x1="-6252.1196" y1="13456.1553" x2="-6065.3501" y2="13456.1553" gradientTransform="matrix(0.1695 0 0 -0.1695 1894.384 2634.5981)">
					<stop  offset="0" style="stop-color:#FCFCFC"/>
					<stop  offset="1" style="stop-color:#E6E6E6"/>
				</linearGradient>
				<polygon class="st34" points="858.2,340.1 866.1,353.8 858.2,367.5 842.4,367.5 834.5,353.8 842.4,340.1 				"/>
				
					<linearGradient id="SVGID_35_" gradientUnits="userSpaceOnUse" x1="-6249.3857" y1="13455.8926" x2="-6068.1147" y2="13455.8926" gradientTransform="matrix(0.1695 0 0 -0.1695 1894.384 2634.5981)">
					<stop  offset="0" style="stop-color:#FCFCFC"/>
					<stop  offset="1" style="stop-color:#E6E6E6"/>
				</linearGradient>
				<polygon class="st35" points="858,340.5 865.8,353.8 858,367.1 842.5,367.1 835,353.8 842.5,340.5 				"/>
				
					<linearGradient id="SVGID_36_" gradientUnits="userSpaceOnUse" x1="-6249.3857" y1="13455.8926" x2="-6068.1147" y2="13455.8926" gradientTransform="matrix(0.1695 0 0 -0.1695 1894.384 2634.5981)">
					<stop  offset="0" style="stop-color:#E6E6E6"/>
					<stop  offset="1" style="stop-color:#FCFCFC"/>
				</linearGradient>
				<polygon class="st36" points="858,340.5 865.8,353.8 858,367.1 842.5,367.1 835,353.8 842.5,340.5 				"/>
			</g>
		</g>
		<g>
			
				<linearGradient id="SVGID_37_" gradientUnits="userSpaceOnUse" x1="957.9326" y1="191.108" x2="1024" y2="191.108" gradientTransform="matrix(-1 0 0 1 1731.8202 2)">
				<stop  offset="0" style="stop-color:#E6E6E6"/>
				<stop  offset="1" style="stop-color:#FCFCFC"/>
			</linearGradient>
			<polygon class="st37" points="724.3,221.7 707.8,193.1 724.3,164.5 757.4,164.5 773.9,193.1 757.4,221.7 			"/>
			
				<linearGradient id="SVGID_38_" gradientUnits="userSpaceOnUse" x1="957.9326" y1="191.108" x2="1024" y2="191.108" gradientTransform="matrix(-1 0 0 1 1731.8202 2)">
				<stop  offset="0" style="stop-color:#E6E6E6"/>
				<stop  offset="1" style="stop-color:#FCFCFC"/>
			</linearGradient>
			<polygon class="st38" points="724.3,221.7 707.8,193.1 724.3,164.5 757.4,164.5 773.9,193.1 757.4,221.7 			"/>
			
				<linearGradient id="SVGID_39_" gradientUnits="userSpaceOnUse" x1="959.4462" y1="191.0635" x2="1022.4863" y2="191.0635" gradientTransform="matrix(-1 0 0 1 1731.8202 2)">
				<stop  offset="0" style="stop-color:#FCFCFC"/>
				<stop  offset="1" style="stop-color:#E6E6E6"/>
			</linearGradient>
			<polygon class="st39" points="725.1,220.4 709.3,193.1 725.1,165.7 756.6,165.7 772.4,193.1 756.6,220.4 			"/>
		</g>
	</g>
	<g>
		<g>
			
				<linearGradient id="SVGID_40_" gradientUnits="userSpaceOnUse" x1="3370.3059" y1="427.8645" x2="3401.0247" y2="427.8645" gradientTransform="matrix(1 0 0 1 -3134.1807 2)">
				<stop  offset="0" style="stop-color:#E6E6E6"/>
				<stop  offset="1" style="stop-color:#FCFCFC"/>
			</linearGradient>
			<polygon class="st40" points="243.8,443.2 236.1,429.8 243.8,416.6 259.1,416.6 266.8,429.8 259.1,443.2 			"/>
			
				<linearGradient id="SVGID_41_" gradientUnits="userSpaceOnUse" x1="3370.3059" y1="427.8645" x2="3401.0247" y2="427.8645" gradientTransform="matrix(1 0 0 1 -3134.1807 2)">
				<stop  offset="0" style="stop-color:#E6E6E6"/>
				<stop  offset="1" style="stop-color:#FCFCFC"/>
			</linearGradient>
			<polygon class="st41" points="243.8,443.2 236.1,429.8 243.8,416.6 259.1,416.6 266.8,429.8 259.1,443.2 			"/>
			
				<linearGradient id="SVGID_42_" gradientUnits="userSpaceOnUse" x1="3371.0183" y1="427.8645" x2="3400.3123" y2="427.8645" gradientTransform="matrix(1 0 0 1 -3134.1807 2)">
				<stop  offset="0" style="stop-color:#FCFCFC"/>
				<stop  offset="1" style="stop-color:#E6E6E6"/>
			</linearGradient>
			<polygon class="st42" points="244.1,442.6 236.8,429.8 244.1,417.2 258.8,417.2 266.1,429.8 258.8,442.6 			"/>
		</g>
		<g>
			
				<linearGradient id="SVGID_43_" gradientUnits="userSpaceOnUse" x1="3377.7852" y1="312.291" x2="3443.8528" y2="312.291" gradientTransform="matrix(1 0 0 1 -3134.1807 2)">
				<stop  offset="0" style="stop-color:#E6E6E6"/>
				<stop  offset="1" style="stop-color:#FCFCFC"/>
			</linearGradient>
			<polygon class="st43" points="260.2,342.9 243.6,314.3 260.2,285.7 293.2,285.7 309.7,314.3 293.2,342.9 			"/>
			
				<linearGradient id="SVGID_44_" gradientUnits="userSpaceOnUse" x1="3377.7852" y1="312.291" x2="3443.8528" y2="312.291" gradientTransform="matrix(1 0 0 1 -3134.1807 2)">
				<stop  offset="0" style="stop-color:#E6E6E6"/>
				<stop  offset="1" style="stop-color:#FCFCFC"/>
			</linearGradient>
			<polygon class="st44" points="260.2,342.9 243.6,314.3 260.2,285.7 293.2,285.7 309.7,314.3 293.2,342.9 			"/>
			
				<linearGradient id="SVGID_45_" gradientUnits="userSpaceOnUse" x1="3379.2991" y1="312.2465" x2="3442.3391" y2="312.2465" gradientTransform="matrix(1 0 0 1 -3134.1807 2)">
				<stop  offset="0" style="stop-color:#FCFCFC"/>
				<stop  offset="1" style="stop-color:#E6E6E6"/>
			</linearGradient>
			<polygon class="st45" points="260.9,341.6 245.1,314.3 260.9,286.9 292.5,286.9 308.2,314.3 292.5,341.6 			"/>
		</g>
		<g>
			
				<linearGradient id="SVGID_46_" gradientUnits="userSpaceOnUse" x1="-20991.082" y1="13374.9951" x2="-20749.75" y2="13374.9951" gradientTransform="matrix(-0.1695 0 0 -0.1695 -3296.7446 2634.5981)">
				<stop  offset="0" style="stop-color:#F1F1F1"/>
				<stop  offset="1" style="stop-color:#DBDBDB"/>
			</linearGradient>
			<polygon class="st46" points="251.2,349.9 261.4,367.6 251.2,385.2 230.7,385.2 220.5,367.6 230.7,349.9 			"/>
			
				<linearGradient id="SVGID_47_" gradientUnits="userSpaceOnUse" x1="-20987.5488" y1="13375.2578" x2="-20753.0742" y2="13375.2578" gradientTransform="matrix(-0.1695 0 0 -0.1695 -3296.7446 2634.5981)">
				<stop  offset="0" style="stop-color:#F1F1F1"/>
				<stop  offset="1" style="stop-color:#DBDBDB"/>
			</linearGradient>
			<polygon class="st47" points="250.9,350.3 260.9,367.6 250.9,384.7 231,384.7 221.1,367.6 231,350.3 			"/>
			
				<linearGradient id="SVGID_48_" gradientUnits="userSpaceOnUse" x1="-20987.5488" y1="13375.2578" x2="-20753.0742" y2="13375.2578" gradientTransform="matrix(-0.1695 0 0 -0.1695 -3296.7446 2634.5981)">
				<stop  offset="0" style="stop-color:#DBDBDB"/>
				<stop  offset="1" style="stop-color:#F1F1F1"/>
			</linearGradient>
			<polygon class="st48" points="250.9,350.3 260.9,367.6 250.9,384.7 231,384.7 221.1,367.6 231,350.3 			"/>
		</g>
		<g>
			<g>
				
					<linearGradient id="SVGID_49_" gradientUnits="userSpaceOnUse" x1="3254.2874" y1="264.3877" x2="3388.7371" y2="264.3877" gradientTransform="matrix(1 0 0 1 -3134.1807 2)">
					<stop  offset="0" style="stop-color:#E6E6E6"/>
					<stop  offset="1" style="stop-color:#FCFCFC"/>
				</linearGradient>
				<polygon class="st49" points="153.7,324.6 120.1,266.3 153.7,208.2 220.9,208.2 254.6,266.3 220.9,324.6 				"/>
				
					<linearGradient id="SVGID_50_" gradientUnits="userSpaceOnUse" x1="3254.2874" y1="264.3877" x2="3388.7371" y2="264.3877" gradientTransform="matrix(1 0 0 1 -3134.1807 2)">
					<stop  offset="0" style="stop-color:#E6E6E6"/>
					<stop  offset="1" style="stop-color:#FCFCFC"/>
				</linearGradient>
				<polygon class="st50" points="153.7,324.6 120.1,266.3 153.7,208.2 220.9,208.2 254.6,266.3 220.9,324.6 				"/>
				
					<linearGradient id="SVGID_51_" gradientUnits="userSpaceOnUse" x1="3257.3147" y1="264.3877" x2="3385.6208" y2="264.3877" gradientTransform="matrix(1 0 0 1 -3134.1807 2)">
					<stop  offset="0" style="stop-color:#FCFCFC"/>
					<stop  offset="1" style="stop-color:#E6E6E6"/>
				</linearGradient>
				<polygon class="st51" points="155.2,322 123.1,266.3 155.2,210.8 219.4,210.8 251.4,266.3 219.4,322 				"/>
			</g>
			<g>
				
					<linearGradient id="SVGID_52_" gradientUnits="userSpaceOnUse" x1="-20202.541" y1="12695.2471" x2="-19665.1504" y2="12695.2471" gradientTransform="matrix(-0.1695 0 0 -0.1695 -3296.7446 2634.5981)">
					<stop  offset="0" style="stop-color:#FCFCFC"/>
					<stop  offset="1" style="stop-color:#E6E6E6"/>
				</linearGradient>
				<polygon class="st52" points="104.8,443.3 127.6,482.8 104.8,522.2 59.2,522.2 36.5,482.8 59.2,443.3 				"/>
				
					<linearGradient id="SVGID_53_" gradientUnits="userSpaceOnUse" x1="-20194.6602" y1="12694.9844" x2="-19672.5039" y2="12694.9844" gradientTransform="matrix(-0.1695 0 0 -0.1695 -3296.7446 2634.5981)">
					<stop  offset="0" style="stop-color:#FCFCFC"/>
					<stop  offset="1" style="stop-color:#E6E6E6"/>
				</linearGradient>
				<polygon class="st53" points="104.2,444.5 126.3,482.8 104.2,521.1 59.9,521.1 37.7,482.8 59.9,444.5 				"/>
				
					<linearGradient id="SVGID_54_" gradientUnits="userSpaceOnUse" x1="-20194.6602" y1="12694.9844" x2="-19672.5039" y2="12694.9844" gradientTransform="matrix(-0.1695 0 0 -0.1695 -3296.7446 2634.5981)">
					<stop  offset="0" style="stop-color:#E6E6E6"/>
					<stop  offset="1" style="stop-color:#FCFCFC"/>
				</linearGradient>
				<polygon class="st54" points="104.1,444.5 126.3,482.8 104.1,521.1 59.8,521.1 37.7,482.8 59.8,444.5 				"/>
			</g>
			<g>
				
					<linearGradient id="SVGID_55_" gradientUnits="userSpaceOnUse" x1="3166.4941" y1="188.8375" x2="3262.9241" y2="188.8375" gradientTransform="matrix(1 0 0 1 -3134.1807 2)">
					<stop  offset="0" style="stop-color:#E6E6E6"/>
					<stop  offset="1" style="stop-color:#FCFCFC"/>
				</linearGradient>
				<polygon class="st55" points="56.4,232.5 32.3,190.8 56.4,149.2 104.5,149.2 128.7,190.8 104.5,232.5 				"/>
				
					<linearGradient id="SVGID_56_" gradientUnits="userSpaceOnUse" x1="3166.4941" y1="188.8375" x2="3262.9241" y2="188.8375" gradientTransform="matrix(1 0 0 1 -3134.1807 2)">
					<stop  offset="0" style="stop-color:#E6E6E6"/>
					<stop  offset="1" style="stop-color:#FCFCFC"/>
				</linearGradient>
				<polygon class="st56" points="56.4,232.5 32.3,190.8 56.4,149.2 104.5,149.2 128.7,190.8 104.5,232.5 				"/>
				
					<linearGradient id="SVGID_57_" gradientUnits="userSpaceOnUse" x1="3168.7202" y1="188.793" x2="3260.698" y2="188.793" gradientTransform="matrix(1 0 0 1 -3134.1807 2)">
					<stop  offset="0" style="stop-color:#FCFCFC"/>
					<stop  offset="1" style="stop-color:#E6E6E6"/>
				</linearGradient>
				<polygon class="st57" points="57.5,230.6 34.5,190.8 57.5,150.9 103.5,150.9 126.5,190.8 103.5,230.6 				"/>
			</g>
			<g>
				
					<linearGradient id="SVGID_58_" gradientUnits="userSpaceOnUse" x1="-20266.627" y1="13406.7764" x2="-19469.7363" y2="13406.7764" gradientTransform="matrix(-0.1695 0 0 -0.1695 -3296.7446 2634.5981)">
					<stop  offset="0" style="stop-color:#FCFCFC"/>
					<stop  offset="1" style="stop-color:#E6E6E6"/>
				</linearGradient>
				<polygon class="st58" points="104.7,303.7 138.4,362.1 104.7,420.6 37.2,420.6 3.4,362.1 37.2,303.7 				"/>
				
					<linearGradient id="SVGID_59_" gradientUnits="userSpaceOnUse" x1="-20255.5957" y1="13406.5137" x2="-19481.8184" y2="13406.5137" gradientTransform="matrix(-0.1695 0 0 -0.1695 -3296.7446 2634.5981)">
					<stop  offset="0" style="stop-color:#FCFCFC"/>
					<stop  offset="1" style="stop-color:#E6E6E6"/>
				</linearGradient>
				<polygon class="st59" points="103.8,305.4 136.6,362.1 103.8,419 38.3,419 5.4,362.1 38.3,305.4 				"/>
				
					<linearGradient id="SVGID_60_" gradientUnits="userSpaceOnUse" x1="-20255.5957" y1="13406.5137" x2="-19481.8184" y2="13406.5137" gradientTransform="matrix(-0.1695 0 0 -0.1695 -3296.7446 2634.5981)">
					<stop  offset="0" style="stop-color:#E6E6E6"/>
					<stop  offset="1" style="stop-color:#FCFCFC"/>
				</linearGradient>
				<polygon class="st60" points="103.7,305.4 136.6,362.1 103.7,419 38.1,419 5.4,362.1 38.1,305.4 				"/>
			</g>
			<g>
				
					<linearGradient id="SVGID_61_" gradientUnits="userSpaceOnUse" x1="3261.7666" y1="427.8645" x2="3358.1074" y2="427.8645" gradientTransform="matrix(1 0 0 1 -3134.1807 2)">
					<stop  offset="0" style="stop-color:#E6E6E6"/>
					<stop  offset="1" style="stop-color:#FCFCFC"/>
				</linearGradient>
				<polygon class="st61" points="151.6,471.6 127.6,429.8 151.6,388.1 199.9,388.1 223.9,429.8 199.9,471.6 				"/>
				
					<linearGradient id="SVGID_62_" gradientUnits="userSpaceOnUse" x1="3261.7666" y1="427.8645" x2="3358.1074" y2="427.8645" gradientTransform="matrix(1 0 0 1 -3134.1807 2)">
					<stop  offset="0" style="stop-color:#E6E6E6"/>
					<stop  offset="1" style="stop-color:#FCFCFC"/>
				</linearGradient>
				<polygon class="st62" points="151.6,471.6 127.6,429.8 151.6,388.1 199.9,388.1 223.9,429.8 199.9,471.6 				"/>
				
					<linearGradient id="SVGID_63_" gradientUnits="userSpaceOnUse" x1="3263.9927" y1="427.8645" x2="3355.8816" y2="427.8645" gradientTransform="matrix(1 0 0 1 -3134.1807 2)">
					<stop  offset="0" style="stop-color:#FCFCFC"/>
					<stop  offset="1" style="stop-color:#E6E6E6"/>
				</linearGradient>
				<polygon class="st63" points="152.8,469.7 129.8,429.8 152.8,390 198.7,390 221.7,429.8 198.7,469.7 				"/>
			</g>
			<g>
				
					<linearGradient id="SVGID_64_" gradientUnits="userSpaceOnUse" x1="-20551.0254" y1="12383.7393" x2="-20161.248" y2="12383.7393" gradientTransform="matrix(-0.1695 0 0 -0.1695 -3296.7446 2634.5981)">
					<stop  offset="0" style="stop-color:#F1F1F1"/>
					<stop  offset="1" style="stop-color:#DBDBDB"/>
				</linearGradient>
				<polygon class="st64" points="170.3,506.9 186.9,535.5 170.3,564.2 137.3,564.2 120.8,535.5 137.3,506.9 				"/>
				
					<linearGradient id="SVGID_65_" gradientUnits="userSpaceOnUse" x1="-20545.3145" y1="12384.002" x2="-20166.5684" y2="12384.002" gradientTransform="matrix(-0.1695 0 0 -0.1695 -3296.7446 2634.5981)">
					<stop  offset="0" style="stop-color:#F1F1F1"/>
					<stop  offset="1" style="stop-color:#DBDBDB"/>
				</linearGradient>
				<polygon class="st65" points="169.9,507.7 185.9,535.4 169.9,563.3 137.8,563.3 121.7,535.4 137.8,507.7 				"/>
				
					<linearGradient id="SVGID_66_" gradientUnits="userSpaceOnUse" x1="-20545.3145" y1="12384.002" x2="-20166.5684" y2="12384.002" gradientTransform="matrix(-0.1695 0 0 -0.1695 -3296.7446 2634.5981)">
					<stop  offset="0" style="stop-color:#DBDBDB"/>
					<stop  offset="1" style="stop-color:#F1F1F1"/>
				</linearGradient>
				<polygon class="st66" points="169.9,507.7 185.9,535.4 169.9,563.3 137.8,563.3 121.7,535.4 137.8,507.7 				"/>
			</g>
			<g>
				
					<linearGradient id="SVGID_67_" gradientUnits="userSpaceOnUse" x1="-20177.1328" y1="12110.8418" x2="-19734.2988" y2="12110.8418" gradientTransform="matrix(-0.1695 0 0 -0.1695 -3296.7446 2634.5981)">
					<stop  offset="0" style="stop-color:#F1F1F1"/>
					<stop  offset="1" style="stop-color:#DBDBDB"/>
				</linearGradient>
				<polygon class="st67" points="104.7,549.4 123.5,581.8 104.7,614.2 67.2,614.2 48.4,581.8 67.2,549.4 				"/>
				
					<linearGradient id="SVGID_68_" gradientUnits="userSpaceOnUse" x1="-20170.6562" y1="12111.1045" x2="-19741.5547" y2="12111.1045" gradientTransform="matrix(-0.1695 0 0 -0.1695 -3296.7446 2634.5981)">
					<stop  offset="0" style="stop-color:#F1F1F1"/>
					<stop  offset="1" style="stop-color:#DBDBDB"/>
				</linearGradient>
				<polygon class="st68" points="104.2,550.2 122.3,581.8 104.2,613.3 67.8,613.3 49.7,581.8 67.8,550.2 				"/>
				
					<linearGradient id="SVGID_69_" gradientUnits="userSpaceOnUse" x1="-20170.6562" y1="12111.1045" x2="-19741.5547" y2="12111.1045" gradientTransform="matrix(-0.1695 0 0 -0.1695 -3296.7446 2634.5981)">
					<stop  offset="0" style="stop-color:#DBDBDB"/>
					<stop  offset="1" style="stop-color:#F1F1F1"/>
				</linearGradient>
				<polygon class="st69" points="104.2,550.2 122.3,581.8 104.2,613.3 67.8,613.3 49.7,581.8 67.8,550.2 				"/>
			</g>
			<g>
				
					<linearGradient id="SVGID_70_" gradientUnits="userSpaceOnUse" x1="-20587.3711" y1="13456.1553" x2="-20400.6016" y2="13456.1553" gradientTransform="matrix(-0.1695 0 0 -0.1695 -3296.7446 2634.5981)">
					<stop  offset="0" style="stop-color:#FCFCFC"/>
					<stop  offset="1" style="stop-color:#E6E6E6"/>
				</linearGradient>
				<polygon class="st70" points="185,340.1 192.9,353.8 185,367.5 169.3,367.5 161.3,353.8 169.3,340.1 				"/>
				
					<linearGradient id="SVGID_71_" gradientUnits="userSpaceOnUse" x1="-20584.6367" y1="13455.8926" x2="-20403.3672" y2="13455.8926" gradientTransform="matrix(-0.1695 0 0 -0.1695 -3296.7446 2634.5981)">
					<stop  offset="0" style="stop-color:#FCFCFC"/>
					<stop  offset="1" style="stop-color:#E6E6E6"/>
				</linearGradient>
				<polygon class="st71" points="184.9,340.5 192.5,353.8 184.9,367.1 169.4,367.1 161.7,353.8 169.4,340.5 				"/>
				
					<linearGradient id="SVGID_72_" gradientUnits="userSpaceOnUse" x1="-20584.6367" y1="13455.8926" x2="-20403.3672" y2="13455.8926" gradientTransform="matrix(-0.1695 0 0 -0.1695 -3296.7446 2634.5981)">
					<stop  offset="0" style="stop-color:#E6E6E6"/>
					<stop  offset="1" style="stop-color:#FCFCFC"/>
				</linearGradient>
				<polygon class="st72" points="184.9,340.5 192.5,353.8 184.9,367.1 169.4,367.1 161.7,353.8 169.4,340.5 				"/>
			</g>
		</g>
		<g>
			
				<linearGradient id="SVGID_73_" gradientUnits="userSpaceOnUse" x1="3387.7578" y1="191.108" x2="3453.8428" y2="191.108" gradientTransform="matrix(1 0 0 1 -3134.1807 2)">
				<stop  offset="0" style="stop-color:#E6E6E6"/>
				<stop  offset="1" style="stop-color:#FCFCFC"/>
			</linearGradient>
			<polygon class="st73" points="270.1,221.7 253.6,193.1 270.1,164.5 303.2,164.5 319.7,193.1 303.2,221.7 			"/>
			
				<linearGradient id="SVGID_74_" gradientUnits="userSpaceOnUse" x1="3387.7578" y1="191.108" x2="3453.8428" y2="191.108" gradientTransform="matrix(1 0 0 1 -3134.1807 2)">
				<stop  offset="0" style="stop-color:#E6E6E6"/>
				<stop  offset="1" style="stop-color:#FCFCFC"/>
			</linearGradient>
			<polygon class="st74" points="270.1,221.7 253.6,193.1 270.1,164.5 303.2,164.5 319.7,193.1 303.2,221.7 			"/>
			
				<linearGradient id="SVGID_75_" gradientUnits="userSpaceOnUse" x1="3389.3604" y1="191.0635" x2="3452.3115" y2="191.0635" gradientTransform="matrix(1 0 0 1 -3134.1807 2)">
				<stop  offset="0" style="stop-color:#FCFCFC"/>
				<stop  offset="1" style="stop-color:#E6E6E6"/>
			</linearGradient>
			<polygon class="st75" points="270.9,220.4 255.2,193.1 270.9,165.7 302.5,165.7 318.1,193.1 302.5,220.4 			"/>
		</g>
	</g>
</g>
</svg>
