<?xml version="1.0" encoding="utf-8"?>
<!-- Generator: Adobe Illustrator 19.2.0, SVG Export Plug-In . SVG Version: 6.00 Build 0)  -->
<svg version="1.1" id="Layer_1" xmlns="http://www.w3.org/2000/svg" xmlns:xlink="http://www.w3.org/1999/xlink" x="0px" y="0px"
	 viewBox="0 0 360 360" style="enable-background:new 0 0 360 360;" xml:space="preserve">
<style type="text/css">
	.st0{fill:url(#SVGID_1_);}
	.st1{fill:url(#SVGID_2_);}
	.st2{fill:url(#SVGID_3_);}
	.st3{clip-path:url(#SVGID_5_);fill:url(#SVGID_6_);}
</style>
<linearGradient id="SVGID_1_" gradientUnits="userSpaceOnUse" x1="4.2" y1="-558.7" x2="355.8" y2="-558.7" gradientTransform="matrix(1 0 0 1 0 744)">
	<stop  offset="0" style="stop-color:#FCFCFC"/>
	<stop  offset="1" style="stop-color:#E6E6E6"/>
</linearGradient>
<polygon class="st0" points="92,337.5 4.2,185.3 92,33.1 267.9,33.1 355.8,185.3 267.9,337.5 "/>
<linearGradient id="SVGID_2_" gradientUnits="userSpaceOnUse" x1="9.2" y1="-558.7" x2="350.6" y2="-558.7" gradientTransform="matrix(1 0 0 1 0 744)">
	<stop  offset="0" style="stop-color:#FCFCFC"/>
	<stop  offset="1" style="stop-color:#E6E6E6"/>
</linearGradient>
<polygon class="st1" points="94.6,333.1 9.2,185.3 94.6,37.5 265.3,37.5 350.6,185.3 265.3,333.1 "/>
<linearGradient id="SVGID_3_" gradientUnits="userSpaceOnUse" x1="10.2425" y1="-558.7" x2="351.6425" y2="-558.7" gradientTransform="matrix(1 0 0 1 0 744)">
	<stop  offset="0" style="stop-color:#E6E6E6"/>
	<stop  offset="1" style="stop-color:#FCFCFC"/>
</linearGradient>
<polygon class="st2" points="95.6,333.1 10.2,185.3 95.6,37.5 266.3,37.5 351.6,185.3 266.3,333.1 "/>
<g>
	<defs>
		<path id="SVGID_4_" d="M216.1,228.7H197v19.1h19.1V228.7z M164.9,169l-19.1,11v67.8h19.1V169z M216.1,222.2v-57l-22.4-12.9
			l-22.4,12.9v89.1h-32.1v-78l25.6-14.8V99l-44.8,25.8v129.4h-6.5V121.1l57.8-33.3v69.9l22.4-12.9l54.5,31.5v52.4h-25.6v25.6h-32.1
			v-32.1H216.1z M222.6,169v53.2h19.1V180L222.6,169z"/>
	</defs>
	<clipPath id="SVGID_5_">
		<use xlink:href="#SVGID_4_"  style="overflow:visible;"/>
	</clipPath>
	<linearGradient id="SVGID_6_" gradientUnits="userSpaceOnUse" x1="180.9249" y1="256.3475" x2="180.9601" y2="85.7527">
		<stop  offset="0" style="stop-color:#BB8E6D"/>
		<stop  offset="1" style="stop-color:#D9B899"/>
	</linearGradient>
	<rect x="113.6" y="87.8" class="st3" width="134.6" height="166.5"/>
</g>
</svg>
