<?xml version="1.0" encoding="utf-8"?>
<!-- Generator: Adobe Illustrator 19.2.0, SVG Export Plug-In . SVG Version: 6.00 Build 0)  -->
<svg version="1.1" id="Layer_1" xmlns="http://www.w3.org/2000/svg" xmlns:xlink="http://www.w3.org/1999/xlink" x="0px" y="0px"
	 viewBox="0 0 360 360" style="enable-background:new 0 0 360 360;" xml:space="preserve">
<style type="text/css">
	.st0{fill:url(#SVGID_1_);}
	.st1{fill:url(#SVGID_2_);}
	.st2{fill:url(#SVGID_3_);}
	.st3{fill:url(#SVGID_4_);}
	.st4{fill:url(#SVGID_5_);}
	.st5{fill:url(#SVGID_6_);}
</style>
<g>
	
		<linearGradient id="SVGID_1_" gradientUnits="userSpaceOnUse" x1="-7513.1274" y1="10127.1279" x2="-5483.6289" y2="10127.1279" gradientTransform="matrix(0.1695 0 0 -0.1695 1281.4751 1896.5981)">
		<stop  offset="0" style="stop-color:#FCFCFC"/>
		<stop  offset="1" style="stop-color:#E6E6E6"/>
	</linearGradient>
	<polygon class="st0" points="266.1,31.1 352,180 266.1,329 94.1,329 8,180 94.1,31.1 	"/>
	
		<linearGradient id="SVGID_2_" gradientUnits="userSpaceOnUse" x1="-7484.4956" y1="10125.8643" x2="-5513.9453" y2="10125.8643" gradientTransform="matrix(0.1695 0 0 -0.1695 1281.4751 1896.5981)">
		<stop  offset="0" style="stop-color:#FCFCFC"/>
		<stop  offset="1" style="stop-color:#E6E6E6"/>
	</linearGradient>
	<polygon class="st1" points="263.4,35.5 346.9,180 263.4,325 96.4,325 12.9,180 96.4,35.5 	"/>
	
		<linearGradient id="SVGID_3_" gradientUnits="userSpaceOnUse" x1="-7484.4956" y1="10125.8643" x2="-5513.9453" y2="10125.8643" gradientTransform="matrix(0.1695 0 0 -0.1695 1281.4751 1896.5981)">
		<stop  offset="0" style="stop-color:#E6E6E6"/>
		<stop  offset="1" style="stop-color:#FCFCFC"/>
	</linearGradient>
	<polygon class="st2" points="263.8,35.5 346.9,180 263.8,325 96.4,325 12.9,180 96.4,35.5 	"/>
	<g>
		<g>
			
				<linearGradient id="SVGID_4_" gradientUnits="userSpaceOnUse" x1="138.4631" y1="227.1267" x2="218.1112" y2="227.1267" gradientTransform="matrix(1 0 0 -1 0 362)">
				<stop  offset="0" style="stop-color:#BB8E6D"/>
				<stop  offset="1" style="stop-color:#D9B899"/>
			</linearGradient>
			<path class="st3" d="M139,173.1v-39.8c0-8.7,3-16.4,9.3-23.1c6.1-6.9,13.8-11,23.1-12.6c2.3-0.3,4.6-0.4,7-0.4c0.1,0,0.3,0,0.4,0
				c11.6,0,21.8,2.9,30.8,8.4l8.4-8h-8c-0.3,1.3-0.9,2.4-2,3c-1.4,0.9-3,1-4.6,0.4c-7.9-3.4-16.1-5.3-25-5.3c-15.6,0-29,5-40.1,14.8
				V174L139,173.1z"/>
			<g>
				<g>
					
						<linearGradient id="SVGID_5_" gradientUnits="userSpaceOnUse" x1="138.4792" y1="144.3383" x2="212.7424" y2="144.3383" gradientTransform="matrix(1 0 0 -1 0 362)">
						<stop  offset="0" style="stop-color:#BB8E6D"/>
						<stop  offset="1" style="stop-color:#D9B899"/>
					</linearGradient>
					<path class="st4" d="M205.3,254.6c-8.4,4.3-17.4,6.1-27.1,6.1c-1.7,0-3.3-0.1-5.1-0.3c-9.4-1.1-17.6-5.1-24-12
						c-6.4-6.9-9.8-14.6-9.8-23.4v-51.8l-0.4,0.3c-0.1,0.1-0.4,0.3-0.4,0.3v73.7c11,9.8,24.3,14.6,39.8,14.6c10,0,19.1-2.1,27.8-6.3
						c2.4-1.1,4.6-2.4,6.7-3.9l-0.7-1.4C209.8,252.1,207.5,253.3,205.3,254.6z"/>
				</g>
			</g>
		</g>
		
			<linearGradient id="SVGID_6_" gradientUnits="userSpaceOnUse" x1="118.9079" y1="181.6645" x2="240.8066" y2="181.6645" gradientTransform="matrix(1 0 0 -1 0 362)">
			<stop  offset="0" style="stop-color:#BB8E6D"/>
			<stop  offset="1" style="stop-color:#D9B899"/>
		</linearGradient>
		<path class="st5" d="M185.9,130.2l50.5,139.7h3.6l0,0c0.4,0,0.9,0.3,0.9,0.6c0,0.3-0.3,0.6-0.9,0.6h-24.3c-0.3,0-0.6-0.3-0.6-0.6
			c0-0.3,0.3-0.6,0.6-0.6h3.3l-45-128.5l-33.4,32.3c-0.1,0.1-0.3,0.3-0.3,0.3V269h3.6c0.3,0,0.6,0.3,0.6,0.6c0,0.3-0.3,0.6-0.6,0.6
			h-24.4c-0.3,0-0.6-0.3-0.6-0.6c0-0.3,0.3-0.6,0.6-0.6h3.6V90.5h-3.6c-0.3,0-0.6-0.3-0.6-0.4c0-0.3,0.3-0.4,0.6-0.4h24.4
			c0.3,0,0.6,0.3,0.6,0.4c0,0.3-0.3,0.4-0.6,0.4h-3.6v82.2l77.4-74.9h-11.6c-0.3,0-0.6-0.3-0.6-0.4c0-0.3,0.3-0.4,0.6-0.4h24.4
			c0.3,0,0.6,0.3,0.6,0.4c0,0.3-0.3,0.4-0.6,0.4h-11.3L185.9,130.2z"/>
	</g>
</g>
<g id="Layer_2">
</g>
</svg>
