<?xml version="1.0" encoding="utf-8"?>
<!-- Generator: Adobe Illustrator 19.2.0, SVG Export Plug-In . SVG Version: 6.00 Build 0)  -->
<svg version="1.1" id="Layer_1" xmlns="http://www.w3.org/2000/svg" xmlns:xlink="http://www.w3.org/1999/xlink" x="0px" y="0px"
	 viewBox="0 0 360 360" style="enable-background:new 0 0 360 360;" xml:space="preserve">
<style type="text/css">
	.st0{fill:url(#SVGID_1_);}
	.st1{fill:url(#SVGID_2_);}
	.st2{fill:url(#SVGID_3_);}
</style>
<g>
	<g>
		
			<linearGradient id="SVGID_1_" gradientUnits="userSpaceOnUse" x1="138.4631" y1="872.85" x2="218.1631" y2="872.85" gradientTransform="matrix(1 0 0 1 0 -738)">
			<stop  offset="0" style="stop-color:#BB8E6D"/>
			<stop  offset="1" style="stop-color:#D9B899"/>
		</linearGradient>
		<path class="st0" d="M139,173.1v-39.8c0-8.7,3-16.4,9.3-23.1c6.1-6.9,13.8-11,23.1-12.6c2.3-0.3,4.6-0.4,7-0.4c0.1,0,0.3,0,0.4,0
			c11.6,0,21.8,2.9,30.8,8.4l8.4-8h-8c-0.3,1.3-0.9,2.4-2,3c-1.4,0.9-3,1-4.6,0.4c-7.9-3.4-16.1-5.3-25-5.3c-15.6,0-29,5-40.1,14.8
			V174L139,173.1z"/>
		<g>
			<g>
				
					<linearGradient id="SVGID_2_" gradientUnits="userSpaceOnUse" x1="138.5" y1="955.65" x2="212.8" y2="955.65" gradientTransform="matrix(1 0 0 1 0 -738)">
					<stop  offset="0" style="stop-color:#BB8E6D"/>
					<stop  offset="1" style="stop-color:#D9B899"/>
				</linearGradient>
				<path class="st1" d="M205.3,254.6c-8.4,4.3-17.4,6.1-27.1,6.1c-1.7,0-3.3-0.1-5.1-0.3c-9.4-1.1-17.6-5.1-24-12
					s-9.8-14.6-9.8-23.4v-51.8l-0.4,0.3c-0.1,0.1-0.4,0.3-0.4,0.3v73.7c11,9.8,24.3,14.6,39.8,14.6c10,0,19.1-2.1,27.8-6.3
					c2.4-1.1,4.6-2.4,6.7-3.9l-0.7-1.4C209.8,252.1,207.5,253.3,205.3,254.6z"/>
			</g>
		</g>
	</g>
	
		<linearGradient id="SVGID_3_" gradientUnits="userSpaceOnUse" x1="118.9" y1="918.4" x2="240.9" y2="918.4" gradientTransform="matrix(1 0 0 1 0 -738)">
		<stop  offset="0" style="stop-color:#BB8E6D"/>
		<stop  offset="1" style="stop-color:#D9B899"/>
	</linearGradient>
	<path class="st2" d="M185.9,130.2l50.5,139.7h3.6l0,0c0.4,0,0.9,0.3,0.9,0.6c0,0.3-0.3,0.6-0.9,0.6h-24.3c-0.3,0-0.6-0.3-0.6-0.6
		c0-0.3,0.3-0.6,0.6-0.6h3.3l-45-128.5l-33.4,32.3c-0.1,0.1-0.3,0.3-0.3,0.3v95h3.6c0.3,0,0.6,0.3,0.6,0.6c0,0.3-0.3,0.6-0.6,0.6
		h-24.4c-0.3,0-0.6-0.3-0.6-0.6c0-0.3,0.3-0.6,0.6-0.6h3.6V90.5h-3.6c-0.3,0-0.6-0.3-0.6-0.4c0-0.3,0.3-0.4,0.6-0.4h24.4
		c0.3,0,0.6,0.3,0.6,0.4c0,0.3-0.3,0.4-0.6,0.4h-3.6v82.2l77.4-74.9h-11.6c-0.3,0-0.6-0.3-0.6-0.4c0-0.3,0.3-0.4,0.6-0.4h24.4
		c0.3,0,0.6,0.3,0.6,0.4c0,0.3-0.3,0.4-0.6,0.4h-11.3L185.9,130.2z"/>
</g>
<g id="Layer_2">
</g>
</svg>
