<?xml version="1.0" encoding="utf-8"?>
<!-- Generator: Adobe Illustrator 19.2.0, SVG Export Plug-In . SVG Version: 6.00 Build 0)  -->
<svg version="1.1" id="Layer_1" xmlns="http://www.w3.org/2000/svg" xmlns:xlink="http://www.w3.org/1999/xlink" x="0px" y="0px"
	 viewBox="0 0 360 360" style="enable-background:new 0 0 360 360;" xml:space="preserve">
<style type="text/css">
	.st0{fill:url(#SVGID_1_);}
	.st1{fill:url(#SVGID_2_);}
	.st2{fill:url(#SVGID_3_);}
	.st3{clip-path:url(#SVGID_5_);fill:url(#SVGID_6_);}
</style>
<g>
	
		<linearGradient id="SVGID_1_" gradientUnits="userSpaceOnUse" x1="4.6463" y1="-558.7" x2="356.2462" y2="-558.7" gradientTransform="matrix(1 0 0 1 0 744)">
		<stop  offset="0" style="stop-color:#FCFCFC"/>
		<stop  offset="1" style="stop-color:#E6E6E6"/>
	</linearGradient>
	<polygon class="st0" points="92.4,337.5 4.6,185.3 92.4,33.1 268.3,33.1 356.2,185.3 268.3,337.5 	"/>
	
		<linearGradient id="SVGID_2_" gradientUnits="userSpaceOnUse" x1="9.7462" y1="-558.7" x2="351.1462" y2="-558.7" gradientTransform="matrix(1 0 0 1 0 744)">
		<stop  offset="0" style="stop-color:#FCFCFC"/>
		<stop  offset="1" style="stop-color:#E6E6E6"/>
	</linearGradient>
	<polygon class="st1" points="95.1,333.1 9.7,185.3 95.1,37.5 265.8,37.5 351.1,185.3 265.8,333.1 	"/>
	
		<linearGradient id="SVGID_3_" gradientUnits="userSpaceOnUse" x1="9.7462" y1="-558.7" x2="351.1462" y2="-558.7" gradientTransform="matrix(1 0 0 1 0 744)">
		<stop  offset="0" style="stop-color:#E6E6E6"/>
		<stop  offset="1" style="stop-color:#FCFCFC"/>
	</linearGradient>
	<polygon class="st2" points="95.1,333.1 9.7,185.3 95.1,37.5 265.8,37.5 351.1,185.3 265.8,333.1 	"/>
	<g>
		<defs>
			<path id="SVGID_4_" d="M145.3,247.8h19.1v-19.1h-19.1V247.8z M196.5,247.8h19.1V180l-19.1-11V247.8z M170.9,222.2v32.1h-32.1
				v-25.6h-25.6v-52.4l54.5-31.5l22.4,12.9V87.8l57.8,33.3v133.2h-6.5V124.9L196.5,99v62.4l25.6,14.8v78H190v-89.1l-22.4-12.9
				l-22.4,12.9v57H170.9z M119.6,180v42.2h19.1V169L119.6,180z"/>
		</defs>
		<clipPath id="SVGID_5_">
			<use xlink:href="#SVGID_4_"  style="overflow:visible;"/>
		</clipPath>
		
			<linearGradient id="SVGID_6_" gradientUnits="userSpaceOnUse" x1="181.4212" y1="256.3475" x2="181.4563" y2="85.7527" gradientTransform="matrix(-1 0 0 1 361.885 0)">
			<stop  offset="0" style="stop-color:#BB8E6D"/>
			<stop  offset="1" style="stop-color:#D9B899"/>
		</linearGradient>
		<rect x="113.1" y="87.8" class="st3" width="134.6" height="166.5"/>
	</g>
</g>
</svg>
